<svg width="200" height="100" viewBox="0 0 200 100" xmlns="http://www.w3.org/2000/svg">
  <!-- Background -->
  <rect width="200" height="100" fill="lightgreen"/>

  <!-- Grass Blades -->
  <path d="M10 100 Q15 70 20 100" stroke="green" stroke-width="3" fill="none"/>
  <path d="M25 100 Q30 60 35 100" stroke="green" stroke-width="3" fill="none"/>
  <path d="M40 100 Q45 50 50 100" stroke="green" stroke-width="3" fill="none"/>
  <path d="M55 100 Q60 65 65 100" stroke="green" stroke-width="3" fill="none"/>
  <path d="M70 100 Q75 55 80 100" stroke="green" stroke-width="3" fill="none"/>
  <path d="M85 100 Q90 70 95 100" stroke="green" stroke-width="3" fill="none"/>
  <path d="M100 100 Q105 50 110 100" stroke="green" stroke-width="3" fill="none"/>
  <path d="M115 100 Q120 60 125 100" stroke="green" stroke-width="3" fill="none"/>
  <path d="M130 100 Q135 55 140 100" stroke="green" stroke-width="3" fill="none"/>
  <path d="M145 100 Q150 65 155 100" stroke="green" stroke-width="3" fill="none"/>
  <path d="M160 100 Q165 50 170 100" stroke="green" stroke-width="3" fill="none"/>
  <path d="M175 100 Q180 70 185 100" stroke="green" stroke-width="3" fill="none"/>
</svg>